<svg xmlns="http://www.w3.org/2000/svg" viewBox="0 0 16.44 16.5"><defs><style>.cls-1{fill:none;stroke:#2264e5;stroke-miterlimit:10;stroke-width:1.5px;}</style></defs><g id="Layer_2" data-name="Layer 2"><g id="Layer_1-2" data-name="Layer 1"><path class="cls-1" d="M3.94.75a2.14,2.14,0,0,1,1.15.73c.58.59,1.18,1.17,1.75,1.78a1.36,1.36,0,0,1,0,1.92c-.36.4-.75.78-1.14,1.16a.16.16,0,0,0,0,.23A8.57,8.57,0,0,0,7.2,8.71a10.8,10.8,0,0,0,2.07,1.74c.2.14.43.25.64.37a.13.13,0,0,0,.18,0c.32-.33.64-.67,1-1a2.21,2.21,0,0,1,.61-.44,1.35,1.35,0,0,1,1.56.32l1.91,1.9a1.48,1.48,0,0,1,.1,2.18c-.45.49-.91,1-1.41,1.43a2.45,2.45,0,0,1-1.88.54,8.47,8.47,0,0,1-3.07-1A15.23,15.23,0,0,1,5,12,15.28,15.28,0,0,1,1.09,6.12a5.81,5.81,0,0,1-.34-2,2.44,2.44,0,0,1,.7-1.72L2.62,1.25a1.8,1.8,0,0,1,.94-.5Z"/></g></g></svg>