<svg width="24" height="24" viewBox="0 0 24 24" fill="none" xmlns="http://www.w3.org/2000/svg">
<path d="M12.1679 0.00111492C5.41933 -0.0900303 -0.0900347 5.41907 0.00111497 12.1673C0.0911108 18.6392 5.36106 23.9089 11.8333 23.9989C18.583 24.0912 24.0912 18.5821 23.9989 11.8338C23.91 5.3608 18.6401 0.0911064 12.1679 0.00111492ZM11.1993 11.1041L14.1732 7.70058C14.3343 7.51622 14.562 7.40341 14.8063 7.38697C15.0506 7.37053 15.2914 7.45179 15.4758 7.6129C15.6602 7.774 15.773 8.00174 15.7894 8.24602C15.8059 8.4903 15.7246 8.73111 15.5635 8.91547L12.5896 12.319C12.5098 12.4103 12.4128 12.485 12.3042 12.5388C12.1956 12.5926 12.0774 12.6245 11.9564 12.6326C11.8355 12.6407 11.7141 12.625 11.5992 12.5862C11.4843 12.5475 11.3782 12.4864 11.2869 12.4067C11.1957 12.3269 11.121 12.2299 11.0672 12.1213C11.0133 12.0127 10.9815 11.8945 10.9733 11.7736C10.9652 11.6526 10.9809 11.5312 11.0197 11.4164C11.0585 11.3015 11.1195 11.1954 11.1993 11.1041ZM8.95743 16.345C8.78435 16.5179 8.54966 16.6151 8.30496 16.6151C8.06026 16.6151 7.82558 16.5179 7.65249 16.345L4.88627 13.576C4.80059 13.4902 4.73264 13.3884 4.6863 13.2764C4.63995 13.1644 4.61613 13.0444 4.61618 12.9231C4.61624 12.8019 4.64017 12.6819 4.68661 12.5699C4.73305 12.4579 4.80109 12.3562 4.88685 12.2705C4.97261 12.1849 5.07441 12.1169 5.18643 12.0706C5.29845 12.0242 5.4185 12.0004 5.53973 12.0005C5.66096 12.0005 5.78099 12.0244 5.89297 12.0709C6.00495 12.1173 6.10668 12.1854 6.19237 12.2711L8.96147 15.0401C9.13391 15.2137 9.23035 15.4487 9.22959 15.6934C9.22883 15.938 9.13094 16.1724 8.95743 16.345ZM19.157 8.91547L12.7026 16.2994C12.6195 16.3947 12.5176 16.4718 12.4034 16.5261C12.2892 16.5804 12.165 16.6106 12.0386 16.6149H12.0075C11.8862 16.615 11.7661 16.5911 11.654 16.5446C11.542 16.4982 11.4402 16.4302 11.3544 16.3444L8.5888 13.5754C8.41575 13.4022 8.31859 13.1674 8.3187 12.9226C8.31881 12.6777 8.41617 12.443 8.58937 12.27C8.76257 12.0969 8.99742 11.9998 9.24225 11.9999C9.48708 12 9.72184 12.0973 9.89489 12.2705L11.614 13.9913C11.6587 14.036 11.7121 14.0711 11.7709 14.0943C11.8297 14.1175 11.8927 14.1284 11.9558 14.1263C12.019 14.1242 12.0811 14.1091 12.1382 14.082C12.1953 14.0549 12.2462 14.0164 12.2879 13.9688L17.7684 7.70058C17.9295 7.51622 18.1572 7.40341 18.4015 7.38697C18.6458 7.37053 18.8866 7.45179 19.071 7.6129C19.2554 7.774 19.3682 8.00174 19.3846 8.24602C19.4011 8.4903 19.3198 8.73111 19.1587 8.91547H19.157Z" fill="#2264E6"/>
</svg>
