<svg width="173" height="23" viewBox="0 0 173 23" fill="none" xmlns="http://www.w3.org/2000/svg">
<path d="M0.54 17V1.16H5.589C5.721 1.16 5.98133 1.16367 6.37 1.171C6.766 1.17833 7.14733 1.204 7.514 1.248C8.768 1.40933 9.82767 1.85667 10.693 2.59C11.5657 3.316 12.2257 4.24367 12.673 5.373C13.1203 6.50233 13.344 7.738 13.344 9.08C13.344 10.422 13.1203 11.6577 12.673 12.787C12.2257 13.9163 11.5657 14.8477 10.693 15.581C9.82767 16.307 8.768 16.7507 7.514 16.912C7.15467 16.956 6.777 16.9817 6.381 16.989C5.985 16.9963 5.721 17 5.589 17H0.54ZM3.235 14.503H5.589C5.809 14.503 6.08767 14.4957 6.425 14.481C6.76967 14.4663 7.074 14.4333 7.338 14.382C8.086 14.2427 8.69467 13.909 9.164 13.381C9.63333 12.853 9.978 12.2113 10.198 11.456C10.4253 10.7007 10.539 9.90867 10.539 9.08C10.539 8.222 10.4253 7.41533 10.198 6.66C9.97067 5.90467 9.61867 5.27033 9.142 4.757C8.67267 4.24367 8.07133 3.91733 7.338 3.778C7.074 3.71933 6.76967 3.68633 6.425 3.679C6.08767 3.66433 5.809 3.657 5.589 3.657H3.235V14.503ZM21.3453 17.33C20.1426 17.33 19.0866 17.0697 18.1773 16.549C17.268 16.0283 16.5566 15.306 16.0433 14.382C15.5373 13.458 15.2843 12.3947 15.2843 11.192C15.2843 9.894 15.5336 8.76833 16.0323 7.815C16.531 6.85433 17.224 6.11 18.1113 5.582C18.9986 5.054 20.0253 4.79 21.1913 4.79C22.4233 4.79 23.4683 5.07967 24.3263 5.659C25.1916 6.231 25.8333 7.04133 26.2513 8.09C26.6693 9.13867 26.827 10.3743 26.7243 11.797H24.0953V10.829C24.088 9.53833 23.8606 8.596 23.4133 8.002C22.966 7.408 22.262 7.111 21.3013 7.111C20.216 7.111 19.4093 7.44833 18.8813 8.123C18.3533 8.79033 18.0893 9.76933 18.0893 11.06C18.0893 12.2627 18.3533 13.194 18.8813 13.854C19.4093 14.514 20.1793 14.844 21.1913 14.844C21.844 14.844 22.405 14.701 22.8743 14.415C23.351 14.1217 23.7176 13.7 23.9743 13.15L26.5923 13.942C26.1376 15.0127 25.4336 15.845 24.4803 16.439C23.5343 17.033 22.4893 17.33 21.3453 17.33ZM17.2533 11.797V9.795H25.4263V11.797H17.2533ZM29.1787 17V5.12H31.5217V8.013L31.2357 7.639C31.3823 7.243 31.5767 6.88367 31.8187 6.561C32.068 6.231 32.365 5.95967 32.7097 5.747C33.003 5.549 33.3257 5.395 33.6777 5.285C34.037 5.16767 34.4037 5.098 34.7777 5.076C35.1517 5.04667 35.5147 5.06133 35.8667 5.12V7.595C35.5147 7.49233 35.1077 7.45933 34.6457 7.496C34.191 7.53267 33.7803 7.661 33.4137 7.881C33.047 8.079 32.7463 8.332 32.5117 8.64C32.2843 8.948 32.1157 9.3 32.0057 9.696C31.8957 10.0847 31.8407 10.5063 31.8407 10.961V17H29.1787ZM38.1858 3.316V0.885H40.8368V3.316H38.1858ZM38.1858 17V5.12H40.8368V17H38.1858ZM47.3438 17L43.0318 5.12H45.6828L48.6748 13.733L51.6558 5.12H54.3178L50.0058 17H47.3438ZM61.2633 17.33C60.0606 17.33 59.0046 17.0697 58.0953 16.549C57.1859 16.0283 56.4746 15.306 55.9613 14.382C55.4553 13.458 55.2023 12.3947 55.2023 11.192C55.2023 9.894 55.4516 8.76833 55.9503 7.815C56.4489 6.85433 57.1419 6.11 58.0293 5.582C58.9166 5.054 59.9433 4.79 61.1093 4.79C62.3413 4.79 63.3863 5.07967 64.2443 5.659C65.1096 6.231 65.7513 7.04133 66.1693 8.09C66.5873 9.13867 66.7449 10.3743 66.6423 11.797H64.0133V10.829C64.0059 9.53833 63.7786 8.596 63.3313 8.002C62.8839 7.408 62.1799 7.111 61.2193 7.111C60.1339 7.111 59.3273 7.44833 58.7993 8.123C58.2713 8.79033 58.0073 9.76933 58.0073 11.06C58.0073 12.2627 58.2713 13.194 58.7993 13.854C59.3273 14.514 60.0973 14.844 61.1093 14.844C61.7619 14.844 62.3229 14.701 62.7923 14.415C63.2689 14.1217 63.6356 13.7 63.8923 13.15L66.5103 13.942C66.0556 15.0127 65.3516 15.845 64.3983 16.439C63.4523 17.033 62.4073 17.33 61.2633 17.33ZM57.1713 11.797V9.795H65.3443V11.797H57.1713ZM69.0966 17V5.12H71.4396V8.013L71.1536 7.639C71.3003 7.243 71.4946 6.88367 71.7366 6.561C71.986 6.231 72.283 5.95967 72.6276 5.747C72.921 5.549 73.2436 5.395 73.5956 5.285C73.955 5.16767 74.3216 5.098 74.6956 5.076C75.0696 5.04667 75.4326 5.06133 75.7846 5.12V7.595C75.4326 7.49233 75.0256 7.45933 74.5636 7.496C74.109 7.53267 73.6983 7.661 73.3316 7.881C72.965 8.079 72.6643 8.332 72.4296 8.64C72.2023 8.948 72.0336 9.3 71.9236 9.696C71.8136 10.0847 71.7586 10.5063 71.7586 10.961V17H69.0966ZM83.0699 17.33C81.8672 17.33 80.8112 17.0697 79.9019 16.549C78.9926 16.0283 78.2812 15.306 77.7679 14.382C77.2619 13.458 77.0089 12.3947 77.0089 11.192C77.0089 9.894 77.2582 8.76833 77.7569 7.815C78.2556 6.85433 78.9486 6.11 79.8359 5.582C80.7232 5.054 81.7499 4.79 82.9159 4.79C84.1479 4.79 85.1929 5.07967 86.0509 5.659C86.9162 6.231 87.5579 7.04133 87.9759 8.09C88.3939 9.13867 88.5516 10.3743 88.4489 11.797H85.8199V10.829C85.8126 9.53833 85.5852 8.596 85.1379 8.002C84.6906 7.408 83.9866 7.111 83.0259 7.111C81.9406 7.111 81.1339 7.44833 80.6059 8.123C80.0779 8.79033 79.8139 9.76933 79.8139 11.06C79.8139 12.2627 80.0779 13.194 80.6059 13.854C81.1339 14.514 81.9039 14.844 82.9159 14.844C83.5686 14.844 84.1296 14.701 84.5989 14.415C85.0756 14.1217 85.4422 13.7 85.6989 13.15L88.3169 13.942C87.8622 15.0127 87.1582 15.845 86.2049 16.439C85.2589 17.033 84.2139 17.33 83.0699 17.33ZM78.9779 11.797V9.795H87.1509V11.797H78.9779ZM96.0623 17.33C94.8376 17.33 93.7926 17.0587 92.9273 16.516C92.0619 15.966 91.3983 15.218 90.9363 14.272C90.4816 13.326 90.2506 12.2553 90.2433 11.06C90.2506 9.84267 90.4889 8.76467 90.9583 7.826C91.4349 6.88 92.1096 6.13933 92.9823 5.604C93.8549 5.06133 94.8926 4.79 96.0953 4.79C97.4446 4.79 98.5849 5.131 99.5163 5.813C100.455 6.48767 101.067 7.41167 101.353 8.585L98.7133 9.3C98.5079 8.662 98.1669 8.167 97.6903 7.815C97.2136 7.45567 96.6709 7.276 96.0623 7.276C95.3729 7.276 94.8046 7.441 94.3573 7.771C93.9099 8.09367 93.5799 8.541 93.3673 9.113C93.1546 9.685 93.0483 10.334 93.0483 11.06C93.0483 12.1893 93.3013 13.1023 93.8073 13.799C94.3133 14.4957 95.0649 14.844 96.0623 14.844C96.7663 14.844 97.3199 14.6827 97.7233 14.36C98.1339 14.0373 98.4419 13.5717 98.6473 12.963L101.353 13.568C100.987 14.778 100.345 15.7093 99.4283 16.362C98.5116 17.0073 97.3896 17.33 96.0623 17.33ZM103.558 17V5.12H105.901V8.013L105.615 7.639C105.761 7.243 105.956 6.88367 106.198 6.561C106.447 6.231 106.744 5.95967 107.089 5.747C107.382 5.549 107.705 5.395 108.057 5.285C108.416 5.16767 108.783 5.098 109.157 5.076C109.531 5.04667 109.894 5.06133 110.246 5.12V7.595C109.894 7.49233 109.487 7.45933 109.025 7.496C108.57 7.53267 108.159 7.661 107.793 7.881C107.426 8.079 107.125 8.332 106.891 8.64C106.663 8.948 106.495 9.3 106.385 9.696C106.275 10.0847 106.22 10.5063 106.22 10.961V17H103.558ZM116.8 17.341C115.92 17.341 115.194 17.1943 114.622 16.901C114.05 16.6077 113.595 16.2337 113.258 15.779C112.92 15.3243 112.671 14.8403 112.51 14.327C112.348 13.8137 112.242 13.3297 112.191 12.875C112.147 12.413 112.125 12.039 112.125 11.753V5.12H114.809V10.84C114.809 11.2067 114.834 11.621 114.886 12.083C114.937 12.5377 115.054 12.9777 115.238 13.403C115.428 13.821 115.707 14.1657 116.074 14.437C116.448 14.7083 116.95 14.844 117.581 14.844C117.918 14.844 118.252 14.789 118.582 14.679C118.912 14.569 119.209 14.382 119.473 14.118C119.744 13.8467 119.96 13.4763 120.122 13.007C120.283 12.5377 120.364 11.9437 120.364 11.225L121.937 11.896C121.937 12.908 121.739 13.8247 121.343 14.646C120.954 15.4673 120.378 16.1237 119.616 16.615C118.853 17.099 117.914 17.341 116.8 17.341ZM120.683 17V13.315H120.364V5.12H123.026V17H120.683ZM126.336 3.316V0.885H128.987V3.316H126.336ZM126.336 17V5.12H128.987V17H126.336ZM139.245 17C138.461 17.1467 137.691 17.209 136.935 17.187C136.187 17.1723 135.516 17.0367 134.922 16.78C134.328 16.516 133.877 16.1017 133.569 15.537C133.298 15.0237 133.155 14.4993 133.14 13.964C133.126 13.4287 133.118 12.8237 133.118 12.149V1.82H135.758V11.995C135.758 12.4717 135.762 12.8897 135.769 13.249C135.784 13.6083 135.861 13.9017 136 14.129C136.264 14.569 136.686 14.8147 137.265 14.866C137.845 14.9173 138.505 14.888 139.245 14.778V17ZM130.962 7.199V5.12H139.245V7.199H130.962ZM142.02 3.316V0.885H144.671V3.316H142.02ZM142.02 17V5.12H144.671V17H142.02ZM156.183 17V11.28C156.183 10.906 156.157 10.4917 156.106 10.037C156.054 9.58233 155.933 9.146 155.743 8.728C155.559 8.30267 155.281 7.95433 154.907 7.683C154.54 7.41167 154.041 7.276 153.411 7.276C153.073 7.276 152.74 7.331 152.41 7.441C152.08 7.551 151.779 7.74167 151.508 8.013C151.244 8.277 151.031 8.64367 150.87 9.113C150.708 9.575 150.628 10.169 150.628 10.895L149.055 10.224C149.055 9.212 149.249 8.29533 149.638 7.474C150.034 6.65267 150.613 6 151.376 5.516C152.138 5.02467 153.077 4.779 154.192 4.779C155.072 4.779 155.798 4.92567 156.37 5.219C156.942 5.51233 157.396 5.88633 157.734 6.341C158.071 6.79567 158.32 7.27967 158.482 7.793C158.643 8.30633 158.746 8.794 158.79 9.256C158.841 9.71067 158.867 10.081 158.867 10.367V17H156.183ZM147.944 17V5.12H150.309V8.805H150.628V17H147.944ZM166.731 22.61C166.071 22.61 165.437 22.5073 164.828 22.302C164.227 22.0967 163.684 21.7997 163.2 21.411C162.716 21.0297 162.32 20.5677 162.012 20.025L164.454 18.815C164.682 19.2477 165.001 19.5667 165.411 19.772C165.829 19.9847 166.273 20.091 166.742 20.091C167.292 20.091 167.784 19.992 168.216 19.794C168.649 19.6033 168.983 19.3173 169.217 18.936C169.459 18.562 169.573 18.0927 169.558 17.528V14.151H169.888V5.12H172.209V17.572C172.209 17.8727 172.195 18.1587 172.165 18.43C172.143 18.7087 172.103 18.98 172.044 19.244C171.868 20.014 171.531 20.6447 171.032 21.136C170.534 21.6347 169.914 22.005 169.173 22.247C168.44 22.489 167.626 22.61 166.731 22.61ZM166.5 17.33C165.408 17.33 164.454 17.055 163.64 16.505C162.826 15.955 162.196 15.207 161.748 14.261C161.301 13.315 161.077 12.248 161.077 11.06C161.077 9.85733 161.301 8.78667 161.748 7.848C162.203 6.902 162.845 6.15767 163.673 5.615C164.502 5.065 165.477 4.79 166.599 4.79C167.729 4.79 168.675 5.065 169.437 5.615C170.207 6.15767 170.79 6.902 171.186 7.848C171.582 8.794 171.78 9.86467 171.78 11.06C171.78 12.2407 171.582 13.3077 171.186 14.261C170.79 15.207 170.2 15.955 169.415 16.505C168.631 17.055 167.659 17.33 166.5 17.33ZM166.907 14.954C167.619 14.954 168.191 14.7927 168.623 14.47C169.063 14.14 169.382 13.6817 169.58 13.095C169.786 12.5083 169.888 11.83 169.888 11.06C169.888 10.2827 169.786 9.60433 169.58 9.025C169.382 8.43833 169.071 7.98367 168.645 7.661C168.22 7.331 167.67 7.166 166.995 7.166C166.284 7.166 165.697 7.342 165.235 7.694C164.773 8.03867 164.432 8.508 164.212 9.102C163.992 9.68867 163.882 10.3413 163.882 11.06C163.882 11.786 163.989 12.446 164.201 13.04C164.421 13.6267 164.755 14.0923 165.202 14.437C165.65 14.7817 166.218 14.954 166.907 14.954Z" fill="#2264E6"/>
</svg>
