<svg width="87" height="87" viewBox="0 0 87 87" fill="none" xmlns="http://www.w3.org/2000/svg">
<path d="M68.6575 19.6475L49.9162 8.80875C46.3275 6.7425 40.7087 6.7425 37.12 8.80875L18.1975 19.72C10.6937 24.795 10.2587 25.5562 10.2587 33.64V53.3237C10.2587 61.4075 10.6937 62.205 18.3425 67.3525L37.0837 78.1912C38.8962 79.2425 41.2162 79.75 43.5 79.75C45.7837 79.75 48.1037 79.2425 49.88 78.1912L68.8025 67.28C76.3062 62.205 76.7412 61.4437 76.7412 53.36V33.64C76.7412 25.5562 76.3062 24.795 68.6575 19.6475Z" fill="#2264E6"/>
<path d="M43.5 55.2812C50.0066 55.2812 55.2812 50.0066 55.2812 43.5C55.2812 36.9934 50.0066 31.7188 43.5 31.7188C36.9934 31.7188 31.7188 36.9934 31.7188 43.5C31.7188 50.0066 36.9934 55.2812 43.5 55.2812Z" fill="white"/>
</svg>
