<?xml version="1.0" encoding="utf-8"?>
<!-- Generator: Adobe Illustrator 24.3.0, SVG Export Plug-In . SVG Version: 6.00 Build 0)  -->
<svg version="1.1" id="Layer_1" xmlns="http://www.w3.org/2000/svg" xmlns:xlink="http://www.w3.org/1999/xlink" x="0px" y="0px"
	 viewBox="0 0 17 15" style="enable-background:new 0 0 17 15;" xml:space="preserve">
<style type="text/css">
	.st0{fill:#2264E5;}
</style>
<path class="st0" d="M8.4,1.3c-1.3,0-3.6,0.5-5.5,2c-1.4,1-2.4,2.3-3,3.8c1.3,3.4,4.6,5.8,8.5,5.8c1.2,0,2.3-0.2,3.4-0.6
	c1.7-0.8,2.9-1.8,3.7-2.8c0.8-1,1.3-1.9,1.5-2.4C15.6,3.7,12.3,1.4,8.4,1.3z M8.5,11c-2.2,0-3.9-1.8-3.9-3.9c0-2.2,1.8-3.9,3.9-3.9
	c2.2,0,3.9,1.8,3.9,3.9C12.4,9.3,10.6,11,8.5,11z"/>
<circle class="st0" cx="8.5" cy="7.1" r="2.3"/>
</svg>
