<svg width="14" height="14" viewBox="0 0 14 14" fill="none" xmlns="http://www.w3.org/2000/svg">
<path d="M13.0908 11.4227C12.7592 10.6372 12.278 9.92377 11.674 9.32207C11.0719 8.71863 10.3585 8.23751 9.57344 7.90527C9.56641 7.90176 9.55937 7.9 9.55234 7.89648C10.6475 7.10547 11.3594 5.81699 11.3594 4.36328C11.3594 1.95508 9.4082 0.00390625 7 0.00390625C4.5918 0.00390625 2.64062 1.95508 2.64062 4.36328C2.64062 5.81699 3.35254 7.10547 4.44765 7.89824C4.44062 7.90176 4.43359 7.90352 4.42656 7.90703C3.63906 8.23926 2.93242 8.71562 2.32598 9.32383C1.72253 9.926 1.24141 10.6393 0.909178 11.4244C0.582791 12.193 0.406763 13.0171 0.390623 13.852C0.390154 13.8707 0.393445 13.8894 0.400301 13.9068C0.407158 13.9243 0.417442 13.9402 0.430547 13.9537C0.443653 13.9671 0.459314 13.9778 0.476609 13.9851C0.493903 13.9923 0.512481 13.9961 0.531248 13.9961H1.58594C1.66328 13.9961 1.7248 13.9346 1.72656 13.859C1.76172 12.502 2.30664 11.2311 3.26992 10.2678C4.2666 9.27109 5.59023 8.72266 7 8.72266C8.40976 8.72266 9.7334 9.27109 10.7301 10.2678C11.6934 11.2311 12.2383 12.502 12.2734 13.859C12.2752 13.9363 12.3367 13.9961 12.4141 13.9961H13.4688C13.4875 13.9961 13.5061 13.9923 13.5234 13.9851C13.5407 13.9778 13.5563 13.9671 13.5695 13.9537C13.5826 13.9402 13.5928 13.9243 13.5997 13.9068C13.6066 13.8894 13.6098 13.8707 13.6094 13.852C13.5918 13.0117 13.4178 12.1943 13.0908 11.4227ZM7 7.38672C6.19316 7.38672 5.43379 7.07207 4.8625 6.50078C4.29121 5.92949 3.97656 5.17012 3.97656 4.36328C3.97656 3.55645 4.29121 2.79707 4.8625 2.22578C5.43379 1.65449 6.19316 1.33984 7 1.33984C7.80684 1.33984 8.56621 1.65449 9.1375 2.22578C9.70879 2.79707 10.0234 3.55645 10.0234 4.36328C10.0234 5.17012 9.70879 5.92949 9.1375 6.50078C8.56621 7.07207 7.80684 7.38672 7 7.38672Z" fill="#2264E6"/>
</svg>
