<svg width="12" height="13" viewBox="0 0 12 13" fill="none" xmlns="http://www.w3.org/2000/svg">
<path d="M6.74999 1.25003C6.74999 0.835817 6.4142 0.500031 5.99999 0.500031C5.58578 0.500031 5.24999 0.835817 5.24999 1.25003V5.75H0.75C0.335786 5.75 0 6.08578 0 6.5C0 6.91421 0.335786 7.25 0.75 7.25H5.24999L5.25 11.75C5.25 12.1642 5.58579 12.5 6 12.5C6.41421 12.5 6.75 12.1642 6.75 11.75L6.74999 7.25H11.25C11.6642 7.25 12 6.91421 12 6.5C12 6.08578 11.6642 5.75 11.25 5.75H6.74999V1.25003Z" fill="white"/>
</svg>
